{"title":"Damned By Dawn-AC3-XviD-BRRip[Eng]2009 TBS","uid":5996761,"size":1198809405,"categoryP":"video","categoryS":"movies","magnet":"?xt=urn:btih:baea12fbfb650272f39e09539fc613e0793c30d6&amp;dn=Damned+By+Dawn-AC3-XviD-BRRip%5BEng%5D2009+TBS&amp;tr=udp%3A%2F%2Ftracker.openbittorrent.com%3A80&amp;tr=udp%3A%2F%2Fopen.demonii.com%3A1337&amp;tr=udp%3A%2F%2Ftracker.coppersurfer.tk%3A6969&amp;tr=udp%3A%2F%2Fexodus.desync.com%3A6969","seeders":0,"leechers":1,"uploader":"FatFreddy30","files":-1,"time":1291047972,"description":"During a violent thunderstorm, a family is awoken by piercing shrieks which summon the dead to rise again. Their lives explode in a blood soaked fury as they battle malevolent spirits, whilst fighting to save their souls from eternal torment with... the Banshee..\n &lt;a href=&quot;\nhttp://www.imdb.com/title/tt1442492/&quot; rel=&quot;nofollow&quot; target=&quot;_NEW&quot;&gt;\nhttp://www.imdb.com/title/tt1442492/&lt;/a&gt;\n\nSubtitles: Dutch (srt).\n\nCovers: Yes\n\nTijdens een gewelddadige storm, wordt een familie gewekt door een hels geluid. Dat geluid roept de doden op om op te staan. De familie moet een wervelstorm aan geesten en banshee's weerstaan om hun zielen te behoeden voor eeuwige kwelling..\n &lt;a href=&quot;\nhttp://www.moviemeter.nl/film/66843&quot; rel=&quot;nofollow&quot; target=&quot;_NEW&quot;&gt;\nhttp://www.moviemeter.nl/film/66843&lt;/a&gt;\n\nOndertitels: Nederlands (srt).\n\nHoesjes: Ja\n\nGeneral\nComplete name                    : Damned By Dawn-AC3-XviD-BRRip[Eng]2009 TBS\\Damned By Dawn-AC3-XviD-BRRip[Eng]2009.avi\nFormat                           : AVI\nFormat/Info                      : Audio Video Interleave\nFile size                        : 1.12 GiB\nDuration                         : 1h 24mn\nOverall bit rate                 : 1 892 Kbps\nWriting application              : VirtualDubMod 1.5.4.1 (build 2178/release)\nWriting library                  : VirtualDubMod build 2178/release\nSource                           : Damned.By.Dawn.2009.720p.BluRay.x264-CiNEFiLE \n\nVideo\nID                               : 0\nFormat                           : MPEG-4 Visual\nFormat profile                   : Simple@L3\nFormat settings, BVOP            : No\nFormat settings, QPel            : No\nFormat settings, GMC             : No warppoints\nFormat settings, Matrix          : Default (H.263)\nCodec ID                         : XVID\nCodec ID/Hint                    : XviD\nDuration                         : 1h 24mn\nBit rate                         : 1 434 Kbps\nWidth                            : 720 pixels\nHeight                           : 400 pixels\nDisplay aspect ratio             : 16:9\nFrame rate                       : 23.976 fps\nResolution                       : 8 bits\nColorimetry                      : 4:2:0\nScan type                        : Progressive\nBits/(Pixel*Frame)               : 0.208\nStream size                      : 867 MiB (76%)\nWriting library                  : XviD 1.1.2 (UTC 2006-11-01)\n\nAudio\nID                               : 1\nFormat                           : AC-3\nFormat/Info                      : Audio Coding 3\nCodec ID                         : 2000\nDuration                         : 1h 24mn\nBit rate mode                    : Constant\nBit rate                         : 448 Kbps\nChannel(s)                       : 6 channels\nChannel positions                : Front: L C R, Surround: L R, LFE\nSampling rate                    : 48.0 KHz\nStream size                      : 271 MiB (24%)\nAlignment                        : Split accross interleaves\nInterleave, duration             : 42 ms (1.00 video frame)\nInterleave, preload duration     : 500 ms\n\nBlackbeard  TBS.","torrent":{"xt":"urn:btih:baea12fbfb650272f39e09539fc613e0793c30d6","amp;dn":"Damned+By+Dawn-AC3-XviD-BRRip%5BEng%5D2009+TBS","amp;tr":["udp%3A%2F%2Ftracker.openbittorrent.com%3A80","udp%3A%2F%2Fopen.demonii.com%3A1337","udp%3A%2F%2Ftracker.coppersurfer.tk%3A6969","udp%3A%2F%2Fexodus.desync.com%3A6969"],"infoHash":"baea12fbfb650272f39e09539fc613e0793c30d6","infoHashBuffer":{"type":"Buffer","data":[186,234,18,251,251,101,2,114,243,158,9,83,159,198,19,224,121,60,48,214]},"announce":[],"urlList":[]}}